<svg xmlns="http://www.w3.org/2000/svg" xmlns:xlink="http://www.w3.org/1999/xlink" viewBox="0 0 90.19 43.95"><defs><style>.cls-1{fill:none;}.cls-2{clip-path:url(#clip-path);}.cls-3,.cls-4,.cls-6{font-size:12px;font-family:HelveticaNeueCyr-BoldItalic, HelveticaNeueCyr;font-weight:700;font-style:italic;}.cls-3{fill:#ffcd33;}.cls-4,.cls-7{fill:#424242;}.cls-5{letter-spacing:-0.02em;}</style><clipPath id="clip-path"><rect class="cls-1" width="90.18" height="43.96"/></clipPath></defs><title>Asset 1</title><g id="Layer_2" data-name="Layer 2"><g id="Layer_1-2" data-name="Layer 1"><g class="cls-2"><text class="cls-3" transform="translate(0 31.39)">ТЕХ</text><text class="cls-4" transform="translate(23.34 31.39)">ОСМ<tspan class="cls-5" x="29.11" y="0">О</tspan><tspan x="38.17" y="0">ТР24</tspan></text><text class="cls-4" transform="translate(21.76 41.38)">онлайн</text><text class="cls-6" transform="translate(65.09 41.38)"> </text><path class="cls-7" d="M28.83,20.32a17.16,17.16,0,0,1,32.63,0h8.27l.35-.2a25.33,25.33,0,0,0-1.33-4.26l-3,.36a22.71,22.71,0,0,0-1.92-3.41l1.81-2.48A25.52,25.52,0,0,0,62.73,7L60.1,8.61a22.81,22.81,0,0,0-3.24-2.38l.65-3a25.43,25.43,0,0,0-4-1.78L51.78,4a22.55,22.55,0,0,0-4-.83l-.64-3Q46.06,0,44.95,0T42.83.1l-.6,3.06a22.66,22.66,0,0,0-4,.88L36.42,1.52a25.45,25.45,0,0,0-3.93,1.81l.7,3.06A22.75,22.75,0,0,0,30,8.8L27.29,7.24a25.71,25.71,0,0,0-2.86,3.3L26.31,13a22.7,22.7,0,0,0-1.88,3.43l-3.08-.33a25.38,25.38,0,0,0-1.25,4.17Z"/></g></g></g></svg>