<?xml version="1.0" encoding="utf-8"?>
<!-- Generator: Adobe Illustrator 21.0.0, SVG Export Plug-In . SVG Version: 6.00 Build 0)  -->
<svg version="1.1" id="Layer_1" xmlns="http://www.w3.org/2000/svg" xmlns:xlink="http://www.w3.org/1999/xlink" x="0px" y="0px"
	 viewBox="0 0 90.2 44" enable-background="new 0 0 90.2 44" xml:space="preserve" width="106" height="52">
<g>
	<defs>
		<rect id="SVGID_1_" y="0" width="106" height="52"/>
	</defs>
	<clipPath id="SVGID_2_">
		<use xlink:href="#SVGID_1_"  overflow="visible"/>
	</clipPath>
	<g clip-path="url(#SVGID_2_)">
		<path fill="#FFCD33" d="M7.8,24.4H5.2l-1.5,7H1.8l1.5-7H0.7L1,22.8h7.1L7.8,24.4z"/>
		<path fill="#FFCD33" d="M15.3,24.4h-4.6l-0.4,1.9h4.3l-0.3,1.5H10l-0.5,2.1h4.7l-0.3,1.6H7.3l1.8-8.5h6.5L15.3,24.4z"/>
		<path fill="#FFCD33" d="M20.5,27l2.1,4.4h-2.1l-1.3-3l-2.4,3h-2.3l3.9-4.5l-2-4h2l1.2,2.8l2.2-2.8h2.2L20.5,27z"/>
	</g>
	<g clip-path="url(#SVGID_2_)">
		<path fill="#424242" d="M32.3,26.3c0,2.9-1.7,5.3-4.8,5.3c-2.3,0-3.7-1.4-3.7-3.8c0-3,2-5.1,4.6-5.1C30.8,22.7,32.3,24,32.3,26.3z
			 M25.7,27.8c0,1.4,0.7,2.3,2,2.3c1.9,0,2.7-2.1,2.7-3.7c0-1.4-0.7-2.2-2-2.2C26.5,24.2,25.7,26.2,25.7,27.8z"/>
		<path fill="#424242" d="M36.8,31.6c-2.3,0-3.6-1.4-3.6-3.8c0-2.8,1.7-5.2,4.7-5.2c2.1,0,3.4,1.2,3.4,3v0.2h-1.8
			c0-1.1-0.6-1.6-1.7-1.6c-1.8,0-2.7,2.1-2.7,3.6c0,1.4,0.7,2.3,1.9,2.3c1.1,0,1.8-0.6,2.1-1.8h1.9C40.5,30.4,38.9,31.6,36.8,31.6z"
			/>
		<path fill="#424242" d="M43.4,22.8H46l0.6,6.2l3.3-6.2h2.7l-1.8,8.5H49l1.6-6.8l-3.6,6.8h-1.4l-0.8-6.8l-1.3,6.8h-1.8L43.4,22.8z"
			/>
		<path fill="#424242" d="M61.4,26.3c0,2.9-1.7,5.3-4.8,5.3c-2.3,0-3.7-1.4-3.7-3.8c0-3,2-5.1,4.6-5.1C59.9,22.7,61.4,24,61.4,26.3z
			 M54.8,27.8c0,1.4,0.7,2.3,2,2.3c1.9,0,2.7-2.1,2.7-3.7c0-1.4-0.7-2.2-2-2.2C55.6,24.2,54.8,26.2,54.8,27.8z"/>
		<path fill="#424242" d="M69.3,24.4h-2.6l-1.5,7h-1.9l1.5-7h-2.7l0.3-1.5h7.1L69.3,24.4z"/>
		<path fill="#424242" d="M73.8,22.8c0.7,0,1.1,0.1,1.5,0.2c0.9,0.3,1.5,1.2,1.5,2.3c0,1.1-0.5,2-1.3,2.6c-0.7,0.4-1.7,0.5-2.5,0.5
			h-1.8l-0.7,3.1h-1.9l1.8-8.5H73.8z M71.5,26.8h1.9c0.9,0,1.6-0.4,1.6-1.4c0-1-0.8-1.1-1.6-1.1H72L71.5,26.8z"/>
		<path fill="#424242" d="M82.6,31.4h-6.2c0.2-2.1,1.5-2.8,3.5-3.9c1.2-0.6,2-1.1,2-2c0-0.7-0.5-1.1-1.2-1.1c-1,0-1.5,0.7-1.6,1.7
			h-1.6c0.2-1.9,1.3-3.1,3.3-3.1c1.7,0,2.8,0.9,2.8,2.4c0,1.7-1.6,2.6-2.9,3.3c-1.2,0.7-1.6,0.9-2,1.3h4.2L82.6,31.4z"/>
		<path fill="#424242" d="M89.7,29.5h-1.1l-0.4,1.9h-1.6l0.4-1.9h-3.9l0.3-1.5l4.9-5h1.6l-1.1,5.1H90L89.7,29.5z M87.9,25l-3,3.1
			h2.4L87.9,25z"/>
	</g>
	<g clip-path="url(#SVGID_2_)">
		<path fill="#424242" d="M28.3,37.7c0,2.1-1.4,3.9-3.6,3.9c-1.8,0-2.8-1-2.8-2.7c0-2.2,1.5-3.8,3.6-3.8C27.2,35,28.3,36,28.3,37.7z
			 M23.5,38.9c0,0.9,0.5,1.4,1.3,1.4c1.3,0,1.8-1.6,1.8-2.7c0-0.9-0.5-1.4-1.2-1.4C24.4,36.3,23.5,37.4,23.5,38.9z"/>
		<path fill="#424242" d="M32.9,41.4l0.6-2.6H31l-0.6,2.6h-1.7l1.3-6.2h1.7l-0.5,2.2h2.4l0.5-2.2h1.7l-1.3,6.2H32.9z"/>
		<path fill="#424242" d="M40.2,41.4l1.1-4.9h-1.6l-0.6,2.2c-0.4,1.5-0.9,2.9-2.6,2.9c-0.2,0-0.7-0.1-0.9-0.1l0.3-1.3
			c0.1,0,0.3,0.1,0.5,0.1c0.5,0,0.8-0.3,1.1-1.6l0.8-3.4h4.9l-1.3,6.2H40.2z"/>
		<path fill="#424242" d="M47.2,35c1.6,0,2.6,0.6,2.6,1.5c0,0.3,0,0.6-0.2,1.1l-0.5,2.2c-0.1,0.5-0.1,0.7-0.1,1c0,0.2,0,0.3,0,0.4
			h-1.7c0-0.1,0-0.1,0-0.2c0-0.1,0-0.2,0-0.4c-0.5,0.5-1.2,0.8-2,0.8c-1.2,0-2-0.7-2-1.7c0-1.6,1.4-2,3-2.1c1.1-0.1,1.8-0.1,1.8-0.9
			c0-0.4-0.4-0.7-1.1-0.7c-0.7,0-1.1,0.3-1.3,0.9h-1.6C44.5,35.5,45.8,35,47.2,35z M46.7,38.7c-0.8,0.1-1.6,0.2-1.6,1
			c0,0.5,0.4,0.8,0.9,0.8c0.9,0,1.4-0.6,1.6-1.5l0.1-0.6C47.5,38.6,47.1,38.7,46.7,38.7z"/>
		<path fill="#424242" d="M54.5,41.4l0.9-4.2l-3,4.2h-2.1l1.3-6.2h1.6l-0.9,4.2l3-4.2h2.1l-1.3,6.2H54.5z M56.8,32.8
			c-0.2,1.2-1,1.7-2.1,1.7c-1,0-1.8-0.4-1.8-1.4c0-0.1,0-0.2,0-0.3h0.7c0,0.6,0.5,0.8,1.2,0.8s1.3-0.2,1.4-0.8H56.8z"/>
		<path fill="#424242" d="M61.8,41.4l0.6-2.6h-2.4l-0.6,2.6h-1.7l1.3-6.2h1.7l-0.5,2.2h2.4l0.5-2.2h1.7l-1.3,6.2H61.8z"/>
	</g>
	<path clip-path="url(#SVGID_2_)" fill="#424242" d="M28.8,20.3C31.1,13.5,37.5,8.5,45,8.5c7.7,0,14.2,4.9,16.4,11.8h8.3l0.4-0.2
		c-0.3-1.5-0.8-2.9-1.3-4.3l-3,0.4c-0.5-1.2-1.2-2.3-1.9-3.4l1.8-2.5c-0.9-1.2-1.8-2.3-2.9-3.3l-2.6,1.6c-1-0.9-2.1-1.7-3.2-2.4
		l0.7-3c-1.3-0.7-2.6-1.3-4-1.8L51.8,4c-1.3-0.4-2.6-0.7-4-0.8l-0.6-3C46.4,0,45.7,0,44.9,0c-0.7,0-1.4,0-2.1,0.1l-0.6,3.1
		c-1.4,0.2-2.7,0.5-4,0.9l-1.8-2.5c-1.4,0.5-2.7,1.1-3.9,1.8l0.7,3.1C32.1,7.1,31,7.9,30,8.8l-2.7-1.6c-1,1-2,2.1-2.9,3.3l1.9,2.5
		c-0.7,1.1-1.4,2.2-1.9,3.4l-3.1-0.3c-0.5,1.3-1,2.7-1.3,4.2H28.8z"/>
</g>
</svg>
